<?xml version="1.0" encoding="UTF-8" standalone="no"?>
<svg
   xmlns:dc="http://purl.org/dc/elements/1.1/"
   xmlns:cc="http://creativecommons.org/ns#"
   xmlns:rdf="http://www.w3.org/1999/02/22-rdf-syntax-ns#"
   xmlns:svg="http://www.w3.org/2000/svg"
   xmlns="http://www.w3.org/2000/svg"
   width="100mm"
   height="100mm"
   viewBox="0 0 100 100"
   version="1.1"
   id="svg8">
  <defs
     id="defs2" />
  <metadata
     id="metadata5">
    <rdf:RDF>
      <cc:Work
         rdf:about="">
        <dc:format>image/svg+xml</dc:format>
        <dc:type
           rdf:resource="http://purl.org/dc/dcmitype/StillImage" />
        <dc:title></dc:title>
      </cc:Work>
    </rdf:RDF>
  </metadata>
  <g
     id="layer1">
    <rect
       style="fill:#fbe199;fill-opacity:1;fill-rule:evenodd;stroke:#f4b400;stroke-width:0.257317;stroke-opacity:1"
       id="rect14"
       width="26.647322"
       height="45.045311"
       x="22.867559"
       y="21.865921" />
    <path
       style="fill:#fbe199;fill-opacity:1;fill-rule:evenodd;stroke:#f4b400;stroke-width:0.259137;stroke-opacity:1"
       id="path18-5-0-2-1-0-8"
       d="m 49.473371,53.990067 a 13.324674,7.8430057 0 0 1 -6.662337,6.792242 13.324674,7.8430057 0 0 1 -13.324674,0 13.324674,7.8430057 0 0 1 -6.662337,-6.792242" />
    <ellipse
       style="fill:#fbe199;fill-opacity:1;fill-rule:evenodd;stroke:#f4b400;stroke-width:0.259137;stroke-opacity:1"
       id="path18"
       cx="36.193077"
       cy="21.998211"
       rx="13.324674"
       ry="7.8430057" />
    <path
       style="fill:#fbe199;fill-opacity:1;fill-rule:evenodd;stroke:#f4b400;stroke-width:0.259137;stroke-opacity:1"
       id="path18-5"
       d="m 49.52633,66.286606 a 13.324674,7.8430057 0 0 1 -6.662337,6.792242 13.324674,7.8430057 0 0 1 -13.324674,0 13.324674,7.8430057 0 0 1 -6.662336,-6.792242" />
    <rect
       style="fill:#fbe199;fill-opacity:1;fill-rule:evenodd;stroke:#f4b400;stroke-width:0.193475;stroke-opacity:1"
       id="rect14-0"
       width="26.647322"
       height="25.466145"
       x="49.514881"
       y="41.445084" />
    <ellipse
       style="fill:#fbe199;fill-opacity:1;fill-rule:evenodd;stroke:#f4b400;stroke-width:0.259137;stroke-opacity:1"
       id="path18-6"
       cx="62.838333"
       cy="41.578407"
       rx="13.324674"
       ry="7.8430057" />
    <ellipse
       style="fill:#fbe199;fill-opacity:1;fill-rule:evenodd;stroke:#f4b400;stroke-width:0.259137;stroke-opacity:1;opacity:1"
       id="path18-5-0"
       d="m 76.173654,66.286598 a 13.324674,7.8430057 0 0 1 -6.662337,6.792242 13.324674,7.8430057 0 0 1 -13.324674,0 13.324674,7.8430057 0 0 1 -6.662337,-6.792242" />
    <path
       style="fill:#fbe199;fill-opacity:1;fill-rule:evenodd;stroke:#f4b400;stroke-width:0.259137;stroke-opacity:1"
       id="path18-5-0-2-1-0-8-1"
       d="m 49.539517,61.72913 a 13.324674,7.8430057 0 0 1 -6.662337,6.792242 13.324674,7.8430057 0 0 1 -13.324673,0 13.324674,7.8430057 0 0 1 -6.662337,-6.792242" />
    <path
       style="fill:#fbe199;fill-opacity:1;fill-rule:evenodd;stroke:#f4b400;stroke-width:0.259137;stroke-opacity:1"
       id="path18-5-0-2-1-0-87"
       d="m 76.163217,59.182518 a 13.324674,7.8430057 0 0 1 -6.662337,6.792242 13.324674,7.8430057 0 0 1 -13.324674,0 13.324674,7.8430057 0 0 1 -6.662337,-6.792242" />
    <rect
       style="fill:#fbe199;fill-opacity:1;fill-rule:evenodd;stroke:#f4b400;stroke-width:0.163294;stroke-opacity:1"
       id="rect14-0-6"
       width="26.647322"
       height="18.14068"
       x="34.098202"
       y="58.701088" />
    <path
       style="fill:#fbe199;fill-opacity:1;fill-rule:evenodd;stroke:#f4b400;stroke-width:0.259137;stroke-opacity:1"
       id="path18-5-0-2-1-0-30"
       d="m 76.163213,49.591373 a 13.324674,7.8430057 0 0 1 -6.662337,6.792243 13.324674,7.8430057 0 0 1 -13.324674,-1e-6 13.324674,7.8430057 0 0 1 -6.662337,-6.792242" />
    <path
       style="fill:#fbe199;fill-opacity:1;fill-rule:evenodd;stroke:#f4b400;stroke-width:0.259137;stroke-opacity:1"
       id="path18-5-0-2-1-0"
       d="m 49.506444,46.085644 a 13.324674,7.8430057 0 0 1 -6.662337,6.792242 13.324674,7.8430057 0 0 1 -13.324674,0 13.324674,7.8430057 0 0 1 -6.662336,-6.792242" />
    <ellipse
       style="fill:#fbe199;fill-opacity:1;fill-rule:evenodd;stroke:#f4b400;stroke-width:0.259137;stroke-opacity:1"
       id="path18-6-3"
       cx="47.409962"
       cy="59.056801"
       rx="13.324674"
       ry="7.8430057" />
    <path
       style="fill:#fbe199;fill-opacity:1;fill-rule:evenodd;stroke:#f4b400;stroke-width:0.259137;stroke-opacity:1"
       id="path18-5-0-2"
       d="m 60.756978,76.217148 a 13.324674,7.8430057 0 0 1 -6.662337,6.792242 13.324674,7.8430057 0 0 1 -13.324674,0 13.324674,7.8430057 0 0 1 -6.662336,-6.792242" />
    <text
       xml:space="preserve"
       style="font-style:normal;font-weight:normal;font-size:10.5833px;line-height:1.25;font-family:sans-serif;fill:#000000;fill-opacity:1;stroke:none;stroke-width:0.264583"
       x="32.901875"
       y="24.496655"
       id="text960"><tspan
         id="tspan958"
         x="32.901875"
         y="24.496655"
         style="fill:#000000;fill-opacity:1;stroke-width:0.264583">$</tspan></text>
    <text
       xml:space="preserve"
       style="font-style:normal;font-weight:normal;font-size:10.5833px;line-height:1.25;font-family:sans-serif;fill:#000000;fill-opacity:1;stroke:none;stroke-width:0.264583"
       x="59.374683"
       y="44.01746"
       id="text960-6"><tspan
         id="tspan958-9"
         x="59.374683"
         y="44.01746"
         style="fill:#000000;fill-opacity:1;stroke-width:0.264583">$</tspan></text>
    <text
       xml:space="preserve"
       style="font-style:normal;font-weight:normal;font-size:10.5833px;line-height:1.25;font-family:sans-serif;fill:#000000;fill-opacity:1;stroke:none;stroke-width:0.264583"
       x="43.83041"
       y="61.744545"
       id="text960-0"><tspan
         id="tspan958-1"
         x="43.83041"
         y="61.744545"
         style="fill:#000000;fill-opacity:1;stroke-width:0.264583">$</tspan></text>
    <path
       style="fill:#fbe199;fill-opacity:1;fill-rule:evenodd;stroke:#f4b400;stroke-width:0.259137;stroke-opacity:1"
       id="path18-5-0-2-1"
       d="m 49.487069,29.957409 a 13.324674,7.8430057 0 0 1 -6.662337,6.792242 13.324674,7.8430057 0 0 1 -13.324674,0 13.324674,7.8430057 0 0 1 -6.662336,-6.792242" />
    <path
       style="fill:#fbe199;fill-opacity:1;fill-rule:evenodd;stroke:#f4b400;stroke-width:0.259137;stroke-opacity:1"
       id="path18-5-0-2-1-2"
       d="m 49.473371,37.883556 a 13.324674,7.8430057 0 0 1 -6.662337,6.792243 13.324674,7.8430057 0 0 1 -13.324674,-10e-7 13.324674,7.8430057 0 0 1 -6.662337,-6.792242" />
    <path
       style="fill:#fbe199;fill-opacity:1;fill-rule:evenodd;stroke:#f4b400;stroke-width:0.259137;stroke-opacity:1"
       id="path18-5-0-2-1-0-3"
       d="m 60.751237,67.053871 a 13.324674,7.8430057 0 0 1 -6.662337,6.792242 13.324674,7.8430057 0 0 1 -13.324674,0 13.324674,7.8430057 0 0 1 -6.662336,-6.792242" />
  </g>
</svg>
